<svg xmlns="http://www.w3.org/2000/svg" width="24" height="24" viewBox="0 0 24 24" class="bt"><g id="apple"><path id="apple-vector" fill="currentColor" d="M18.52 8.23c-.106.086-1.993 1.183-1.993 3.62 0 2.82 2.401 3.818 2.473 3.843-.011.06-.381 1.366-1.266 2.696-.788 1.17-1.612 2.34-2.865 2.34s-1.575-.751-3.022-.751c-1.41 0-1.91.775-3.056.775S6.845 19.67 5.925 18.34C4.86 16.778 4 14.35 4 12.048c0-3.694 2.329-5.653 4.621-5.653 1.218 0 2.233.825 2.998.825.728 0 1.863-.874 3.248-.874.525 0 2.412.05 3.654 1.885m-4.31-3.448c.572-.701.978-1.674.978-2.647 0-.135-.011-.272-.035-.382-.933.036-2.042.64-2.71 1.44-.526.616-1.016 1.589-1.016 2.575 0 .148.024.296.035.344a1.4 1.4 0 0 0 .25.025c.837 0 1.89-.578 2.497-1.355"></path></g></svg>