<svg xmlns="http://www.w3.org/2000/svg" width="24" height="24" fill="none" viewBox="0 0 24 24" class="bt"><g id="facebook"><g id="facebook-vector"><path fill="#1877F2" d="M22 12.002c0-5.523-4.477-10-10-10s-10 4.477-10 10c0 4.991 3.657 9.128 8.438 9.879v-6.988h-2.54v-2.891h2.54V9.799c0-2.506 1.492-3.89 3.777-3.89 1.094 0 2.238.195 2.238.195v2.46h-1.26c-1.243 0-1.63.771-1.63 1.562v1.876h2.773l-.443 2.89h-2.33v6.989c4.78-.75 8.437-4.888 8.437-9.879"></path><path fill="#fff" d="m15.893 14.893.443-2.891h-2.773v-1.876c0-.79.387-1.562 1.63-1.562h1.26v-2.46s-1.144-.196-2.238-.196c-2.284 0-3.777 1.385-3.777 3.89v2.204h-2.54v2.89h2.54v6.989a10 10 0 0 0 3.124 0v-6.988z"></path></g></g></svg>